<svg width="71" height="70" viewBox="0 0 71 70" fill="none" xmlns="http://www.w3.org/2000/svg">
<path d="M35.7591 0C16.431 0 0.759125 15.6719 0.759125 35C0.759125 54.3281 16.431 70 35.7591 70C55.0872 70 70.7591 54.3281 70.7591 35C70.7591 15.6719 55.0872 0 35.7591 0ZM50.8763 23.5703L34.4232 46.3828C34.1932 46.7038 33.8901 46.9653 33.5389 47.1457C33.1877 47.3261 32.7985 47.4203 32.4037 47.4203C32.0088 47.4203 31.6197 47.3261 31.2684 47.1457C30.9172 46.9653 30.6141 46.7038 30.3841 46.3828L20.6419 32.8828C20.3451 32.4688 20.6419 31.8906 21.1497 31.8906H24.8138C25.6107 31.8906 26.3685 32.2734 26.8372 32.9297L32.3997 40.6484L44.681 23.6172C45.1497 22.9687 45.8997 22.5781 46.7044 22.5781H50.3685C50.8763 22.5781 51.1732 23.1562 50.8763 23.5703Z" fill="#52C41A"/>
</svg>
