<svg width="72" height="62" viewBox="0 0 72 62" fill="none" xmlns="http://www.w3.org/2000/svg">
<path d="M70.6638 57.875L38.1638 1.625C37.6794 0.789062 36.8434 0.375 35.9997 0.375C35.1559 0.375 34.3122 0.789062 33.8356 1.625L1.33564 57.875C0.374702 59.5469 1.57783 61.625 3.4997 61.625H68.4997C70.4216 61.625 71.6247 59.5469 70.6638 57.875ZM33.4997 23.5C33.4997 23.1562 33.7809 22.875 34.1247 22.875H37.8747C38.2184 22.875 38.4997 23.1562 38.4997 23.5V37.875C38.4997 38.2188 38.2184 38.5 37.8747 38.5H34.1247C33.7809 38.5 33.4997 38.2188 33.4997 37.875V23.5ZM35.9997 51C35.0184 50.98 34.084 50.5761 33.3971 49.875C32.7102 49.1739 32.3255 48.2315 32.3255 47.25C32.3255 46.2685 32.7102 45.3261 33.3971 44.625C34.084 43.9239 35.0184 43.52 35.9997 43.5C36.981 43.52 37.9154 43.9239 38.6023 44.625C39.2892 45.3261 39.6739 46.2685 39.6739 47.25C39.6739 48.2315 39.2892 49.1739 38.6023 49.875C37.9154 50.5761 36.981 50.98 35.9997 51Z" fill="#FFC53D"/>
</svg>
